<?xml version="1.0" encoding="utf-8"?>
<!-- Generator: Adobe Illustrator 20.1.0, SVG Export Plug-In . SVG Version: 6.00 Build 0)  -->
<svg version="1.1" id="Layer_1" xmlns="http://www.w3.org/2000/svg" xmlns:xlink="http://www.w3.org/1999/xlink" x="0px" y="0px"
	 viewBox="0 0 600 600" style="enable-background:new 0 0 600 600;" xml:space="preserve">
<style type="text/css">
	.st0{fill:#744B9E;}
</style>
<g>
	<g>
		<path class="st0" d="M145.7,249.3c0,9.2,7.5,16.8,16.8,16.8s16.8-7.5,16.8-16.8c0-2.8-0.7-5.6-2.1-8.1l88.2-152.7H360
			c3.4,8.3,11.5,13.9,20.5,13.9c12.2,0,22.1-9.9,22.1-22.1s-9.9-22.1-22.1-22.1c-8.3,0-15.8,4.5-19.6,11.9H254.6l-93.9,162.6
			C152.2,233.5,145.7,240.7,145.7,249.3z M380.6,70c5.6,0,10.2,4.6,10.2,10.2c0,5.6-4.6,10.2-10.2,10.2c-5.6,0-10.2-4.6-10.2-10.2
			C370.3,74.6,374.9,70,380.6,70z"/>
		<path class="st0" d="M529.2,232.7c-0.3,0-0.6,0-0.9,0l-53.2-92.1l-187.8,0c-3.1-4.3-8.2-6.9-13.6-6.9c-2.9,0-5.8,0.8-8.3,2.2
			c-8,4.6-10.8,14.9-6.1,22.9c3,5.2,8.6,8.4,14.5,8.4c2.9,0,5.8-0.8,8.4-2.2c2.4-1.4,4.5-3.4,6-5.9l176.3,0l47.4,82.1
			c-5.5,7.1-6.2,16.9-1.7,24.7c3.9,6.8,11.3,11.1,19.2,11.1c0,0,0,0,0,0c3.9,0,7.7-1,11-3c5.1-3,8.8-7.7,10.3-13.4
			c1.5-5.7,0.7-11.7-2.2-16.8C544.4,237,537.1,232.7,529.2,232.7z M534.3,263.7c-1.6,0.9-3.3,1.4-5.1,1.4c-3.7,0-7.1-2-8.9-5.1
			c-1.4-2.4-1.7-5.1-1-7.8c0.7-2.6,2.4-4.8,4.8-6.2c1.6-0.9,3.3-1.4,5.1-1.4c3.7,0,7.1,2,8.9,5.1
			C540.9,254.6,539.2,260.9,534.3,263.7z"/>
		<path class="st0" d="M430.6,207.7c3.5-7.8,0.5-17-6.9-21.3c-2.5-1.5-5.4-2.2-8.4-2.2c-6,0-11.5,3.2-14.5,8.4
			c-4.6,8-1.9,18.3,6.1,22.9c2.4,1.4,5.2,2.2,8.1,2.2l88.2,152.7l-47.4,82.1c-1-0.1-2-0.2-3.1-0.2c-7.9,0-15.2,4.2-19.2,11.1
			c-6.1,10.6-2.5,24.1,8.1,30.2c3.4,1.9,7.2,3,11,3c0,0,0,0,0,0c7.9,0,15.2-4.2,19.2-11.1c4.2-7.2,4-16-0.5-23l53.2-92.1
			L430.6,207.7z M461.5,479.5c-1.8,3.2-5.2,5.1-8.9,5.1c-1.8,0-3.5-0.5-5.1-1.4c-4.9-2.8-6.6-9.1-3.7-14c1.8-3.2,5.2-5.1,8.9-5.1
			c1.8,0,3.5,0.5,5.1,1.4c2.4,1.4,4.1,3.6,4.8,6.2C463.2,474.3,462.9,477.1,461.5,479.5z"/>
		<path class="st0" d="M459.9,349.7c0-9.2-7.5-16.8-16.8-16.8s-16.8,7.5-16.8,16.8c0,2.8,0.7,5.6,2.1,8.1l-88.2,152.7h-94.8
			c-3.4-8.3-11.5-13.9-20.5-13.9c-12.2,0-22.1,9.9-22.1,22.1c0,12.2,9.9,22.1,22.1,22.1c8.3,0,15.8-4.5,19.6-11.9H351l93.9-162.6
			C453.4,365.5,459.9,358.3,459.9,349.7z M225.1,529c-5.6,0-10.2-4.6-10.2-10.2s4.6-10.2,10.2-10.2c5.6,0,10.2,4.6,10.2,10.2
			S230.7,529,225.1,529z"/>
		<path class="st0" d="M327.5,464.9c2.9,0,5.8-0.8,8.4-2.2c8-4.6,10.8-14.9,6.1-22.9c-3-5.2-8.6-8.4-14.5-8.4
			c-2.9,0-5.8,0.8-8.4,2.2c-2.4,1.4-4.5,3.4-6,5.9l-176.3,0l-47.4-82.1c5.5-7.1,6.2-16.9,1.7-24.7c-3.9-6.8-11.3-11.1-19.2-11.1
			c-3.9,0-7.7,1-11,3c-5.1,3-8.8,7.7-10.3,13.4c-1.5,5.7-0.7,11.7,2.2,16.8C56.8,361.7,64.1,366,72,366c0,0,0,0,0,0
			c0.3,0,0.6,0,0.9,0l53.2,92.1l187.8,0C317.1,462.4,322.1,464.9,327.5,464.9z M81.9,346.5c-0.7,2.6-2.4,4.8-4.8,6.2
			c-1.6,0.9-3.3,1.4-5.1,1.4c-3.7,0-7.1-2-8.9-5.1c-2.8-4.9-1.1-11.2,3.7-14c1.6-0.9,3.3-1.4,5.1-1.4c3.7,0,7.1,2,8.9,5.1
			C82.2,341.1,82.6,343.8,81.9,346.5z"/>
		<polygon class="st0" points="473.1,346.6 400.6,472.5 398.5,472.5 387.8,491 411.2,491 483.8,365.1 		"/>
		<polygon class="st0" points="257,125.8 400.6,125.8 402.7,129.3 424.1,129.3 411.2,107.3 267.7,107.3 		"/>
		<path class="st0" d="M92.6,274.8l-13.6,24.3l17.3,30l0.2,0.2c0.1,0.1,0.1,0.2,0.2,0.3c0.1,0.1,0.1,0.2,0.2,0.3l0.1,0.3l55.8,96.1
			H174l-73.7-127.2l2.9-5.8L92.6,274.8z"/>
		<path class="st0" d="M509.3,320.6l12.7-21.4l-17-29.5l-0.2-0.3c-0.1-0.1-0.1-0.2-0.2-0.3c-0.1-0.1-0.1-0.2-0.2-0.3l-0.2-0.3
			l-55.8-96.6h-21.4l73.5,127.3l-2,2.9L509.3,320.6z"/>
		<polygon class="st0" points="127.1,252.6 200.4,125.8 209,125.8 219.7,107.3 189.7,107.3 173.5,135.4 173.4,135.5 116.4,234.1 		
			"/>
		<polygon class="st0" points="346.2,472.5 200.4,472.5 199.1,469.6 177.8,469.6 189.7,491 335.6,491 		"/>
		<path class="st0" d="M171,387.8c-3.5,7.8-0.5,17,6.9,21.3c2.5,1.5,5.4,2.2,8.4,2.2c6,0,11.5-3.2,14.5-8.4
			c2.2-3.9,2.8-8.4,1.7-12.7c-1.2-4.3-3.9-7.9-7.8-10.2c-2.4-1.4-5.2-2.2-8.1-2.2L98.4,225.2l47.4-82.1c1,0.1,2,0.2,3.1,0.2
			c0,0,0,0,0,0c7.9,0,15.2-4.2,19.2-11.1c6.1-10.6,2.5-24.1-8.1-30.2c-3.4-1.9-7.2-3-11-3c-7.9,0-15.2,4.2-19.2,11.1
			c-4.2,7.2-4,16,0.5,23l-53.2,92.1L171,387.8z M140.1,116.1c1.8-3.2,5.2-5.1,8.9-5.1c1.8,0,3.5,0.5,5.1,1.4
			c2.4,1.4,4.1,3.6,4.8,6.2c0.7,2.6,0.3,5.4-1,7.8c-1.8,3.2-5.2,5.1-8.9,5.1c-1.8,0-3.5-0.5-5.1-1.4
			C138.9,127.2,137.2,120.9,140.1,116.1z"/>
		<polygon class="st0" points="229.3,220 304.8,346.2 324.1,346.2 238.2,203.4 		"/>
		<polygon class="st0" points="300.4,411.3 253.5,333.2 269.5,312.6 259.7,296.7 243.4,316.8 210.4,261.8 200.9,277.5 281.2,411.3 
					"/>
		<polygon class="st0" points="296.8,186.4 278.4,186.4 384.9,365.1 417.1,317.2 397.7,317.2 385.8,334.5 306.3,201.6 336.2,201.6 
			345.8,186.4 298,186.4 		"/>
		<polygon class="st0" points="183.5,304.5 247.9,412.6 265.9,412.6 191.8,289 		"/>
		<polygon class="st0" points="369.1,212.9 343.7,212.9 342.7,212.9 327.4,212.9 384.9,308.9 393.7,297 350.8,225.6 375.9,225.6 		
			"/>
		<polygon class="st0" points="356.4,373.9 375,373.9 292.6,236.7 284,252.7 		"/>
	</g>
</g>
</svg>
