<?xml version="1.0" encoding="utf-8"?>
<!-- Generator: Adobe Illustrator 20.1.0, SVG Export Plug-In . SVG Version: 6.00 Build 0)  -->
<svg version="1.1" id="Layer_1" xmlns="http://www.w3.org/2000/svg" xmlns:xlink="http://www.w3.org/1999/xlink" x="0px" y="0px"
	 viewBox="0 0 1800 600" style="enable-background:new 0 0 1800 600;" xml:space="preserve">
<style type="text/css">
	.st0{fill:#784B9E;}
	.st1{fill:#F7B818;}
	.st2{fill:#3A3A3A;}
</style>
<g>
	<path class="st0" d="M274.1,564.9c-22.8,0-42.3-16.3-46.4-38.7l-1.5-8.2H222L203.6,485h-44.9l-54.5-94.3l-3.1-1.3
		c-9.6-4-17.7-11.1-22.9-20c-6.3-10.9-8-23.6-4.7-35.8c3-11.1,9.9-20.8,19.5-27.1l2-1.3l22.3-39.8l-22.1-38.3l54.4-94.3l-0.5-3.4
		c-1.4-10.4,0.6-20.7,5.9-29.9c8.4-14.5,24-23.6,40.8-23.6c8.2,0,16.4,2.2,23.5,6.3c0.1,0.1,0.8,0.5,0.8,0.5l2.4,1.4h42.9L287.1,47
		H396l2.7-2.1c8.3-6.4,18.3-9.8,28.8-9.8c26,0,47.1,21.1,47.1,47.1c0,0.7,0,1.5-0.1,2.3l-0.1,3l17.5,30.2l44.5,0L591,212l3.1,1.3
		c9.6,4,17.7,11.1,22.9,20c6.3,10.9,8,23.6,4.7,35.8c-3,11.2-9.9,20.8-19.6,27.1l-1.9,1.3l-21.9,36.8l22,38l-54.4,94.3l0.5,3.4
		c1.4,10.4-0.6,20.7-5.9,29.9c-8.4,14.5-24,23.6-40.8,23.6c-6.9,0-13.9-1.6-20.2-4.6l-2-1h-42.7l-20.2,35H305.6l-2.7,2.1
		C294.6,561.5,284.6,564.9,274.1,564.9z"/>
</g>
<g>
	<g>
		<path class="st1" d="M192.7,251.3c0,9.2,7.5,16.8,16.8,16.8s16.8-7.5,16.8-16.8c0-2.8-0.7-5.6-2.1-8.1l88.2-152.7H407
			c3.4,8.3,11.5,13.9,20.5,13.9c12.2,0,22.1-9.9,22.1-22.1s-9.9-22.1-22.1-22.1c-8.3,0-15.8,4.5-19.6,11.9H301.6l-93.9,162.6
			C199.2,235.5,192.7,242.7,192.7,251.3z M427.6,72c5.6,0,10.2,4.6,10.2,10.2c0,5.6-4.6,10.2-10.2,10.2c-5.6,0-10.2-4.6-10.2-10.2
			C417.3,76.6,421.9,72,427.6,72z"/>
		<path class="st1" d="M576.2,234.7c-0.3,0-0.6,0-0.9,0l-53.2-92.1l-187.8,0c-3.1-4.3-8.2-6.9-13.6-6.9c-2.9,0-5.8,0.8-8.3,2.2
			c-8,4.6-10.8,14.9-6.1,22.9c3,5.2,8.6,8.4,14.5,8.4c2.9,0,5.8-0.8,8.4-2.2c2.4-1.4,4.5-3.4,6-5.9l176.3,0l47.4,82.1
			c-5.5,7.1-6.2,16.9-1.7,24.7c3.9,6.8,11.3,11.1,19.2,11.1c0,0,0,0,0,0c3.9,0,7.7-1,11-3c5.1-3,8.8-7.7,10.3-13.4
			c1.5-5.7,0.7-11.7-2.2-16.8C591.4,239,584.1,234.7,576.2,234.7z M581.3,265.7c-1.6,0.9-3.3,1.4-5.1,1.4c-3.7,0-7.1-2-8.9-5.1
			c-1.4-2.4-1.7-5.1-1-7.8c0.7-2.6,2.4-4.8,4.8-6.2c1.6-0.9,3.3-1.4,5.1-1.4c3.7,0,7.1,2,8.9,5.1
			C587.9,256.6,586.2,262.9,581.3,265.7z"/>
		<path class="st1" d="M477.6,209.7c3.5-7.8,0.5-17-6.9-21.3c-2.5-1.5-5.4-2.2-8.4-2.2c-6,0-11.5,3.2-14.5,8.4
			c-4.6,8-1.9,18.3,6.1,22.9c2.4,1.4,5.2,2.2,8.1,2.2l88.2,152.7l-47.4,82.1c-1-0.1-2-0.2-3.1-0.2c-7.9,0-15.2,4.2-19.2,11.1
			c-6.1,10.6-2.5,24.1,8.1,30.2c3.4,1.9,7.2,3,11,3c0,0,0,0,0,0c7.9,0,15.2-4.2,19.2-11.1c4.2-7.2,4-16-0.5-23l53.2-92.1
			L477.6,209.7z M508.5,481.5c-1.8,3.2-5.2,5.1-8.9,5.1c-1.8,0-3.5-0.5-5.1-1.4c-4.9-2.8-6.6-9.1-3.7-14c1.8-3.2,5.2-5.1,8.9-5.1
			c1.8,0,3.5,0.5,5.1,1.4c2.4,1.4,4.1,3.6,4.8,6.2C510.2,476.3,509.9,479.1,508.5,481.5z"/>
		<path class="st1" d="M506.9,351.7c0-9.2-7.5-16.8-16.8-16.8s-16.8,7.5-16.8,16.8c0,2.8,0.7,5.6,2.1,8.1l-88.2,152.7h-94.8
			c-3.4-8.3-11.5-13.9-20.5-13.9c-12.2,0-22.1,9.9-22.1,22.1c0,12.2,9.9,22.1,22.1,22.1c8.3,0,15.8-4.5,19.6-11.9H398l93.9-162.6
			C500.4,367.5,506.9,360.3,506.9,351.7z M272.1,531c-5.6,0-10.2-4.6-10.2-10.2s4.6-10.2,10.2-10.2c5.6,0,10.2,4.6,10.2,10.2
			S277.7,531,272.1,531z"/>
		<path class="st1" d="M374.5,466.9c2.9,0,5.8-0.8,8.4-2.2c8-4.6,10.8-14.9,6.1-22.9c-3-5.2-8.6-8.4-14.5-8.4
			c-2.9,0-5.8,0.8-8.4,2.2c-2.4,1.4-4.5,3.4-6,5.9l-176.3,0l-47.4-82.1c5.5-7.1,6.2-16.9,1.7-24.7c-3.9-6.8-11.3-11.1-19.2-11.1
			c-3.9,0-7.7,1-11,3c-5.1,3-8.8,7.7-10.3,13.4c-1.5,5.7-0.7,11.7,2.2,16.8c3.9,6.8,11.3,11.1,19.2,11.1c0,0,0,0,0,0
			c0.3,0,0.6,0,0.9,0l53.2,92.1l187.8,0C364.1,464.4,369.1,466.9,374.5,466.9z M128.9,348.5c-0.7,2.6-2.4,4.8-4.8,6.2
			c-1.6,0.9-3.3,1.4-5.1,1.4c-3.7,0-7.1-2-8.9-5.1c-2.8-4.9-1.1-11.2,3.7-14c1.6-0.9,3.3-1.4,5.1-1.4c3.7,0,7.1,2,8.9,5.1
			C129.2,343.1,129.6,345.8,128.9,348.5z"/>
		<polygon class="st1" points="520.1,348.6 447.6,474.5 445.5,474.5 434.8,493 458.2,493 530.8,367.1 		"/>
		<polygon class="st1" points="304,127.8 447.6,127.8 449.7,131.3 471.1,131.3 458.2,109.3 314.7,109.3 		"/>
		<path class="st1" d="M139.6,276.8l-13.6,24.3l17.3,30l0.2,0.2c0.1,0.1,0.1,0.2,0.2,0.3c0.1,0.1,0.1,0.2,0.2,0.3l0.1,0.3l55.8,96.1
			H221l-73.7-127.2l2.9-5.8L139.6,276.8z"/>
		<path class="st1" d="M556.3,322.6l12.7-21.4l-17-29.5l-0.2-0.3c-0.1-0.1-0.1-0.2-0.2-0.3c-0.1-0.1-0.1-0.2-0.2-0.3l-0.2-0.3
			l-55.8-96.6h-21.4l73.5,127.3l-2,2.9L556.3,322.6z"/>
		<polygon class="st1" points="174.1,254.6 247.4,127.8 256,127.8 266.7,109.3 236.7,109.3 220.5,137.4 220.4,137.5 163.4,236.1 		
			"/>
		<polygon class="st1" points="393.2,474.5 247.4,474.5 246.1,471.6 224.8,471.6 236.7,493 382.6,493 		"/>
		<path class="st1" d="M218,389.8c-3.5,7.8-0.5,17,6.9,21.3c2.5,1.5,5.4,2.2,8.4,2.2c6,0,11.5-3.2,14.5-8.4
			c2.2-3.9,2.8-8.4,1.7-12.7c-1.2-4.3-3.9-7.9-7.8-10.2c-2.4-1.4-5.2-2.2-8.1-2.2l-88.2-152.7l47.4-82.1c1,0.1,2,0.2,3.1,0.2
			c0,0,0,0,0,0c7.9,0,15.2-4.2,19.2-11.1c6.1-10.6,2.5-24.1-8.1-30.2c-3.4-1.9-7.2-3-11-3c-7.9,0-15.2,4.2-19.2,11.1
			c-4.2,7.2-4,16,0.5,23l-53.2,92.1L218,389.8z M187.1,118.1c1.8-3.2,5.2-5.1,8.9-5.1c1.8,0,3.5,0.5,5.1,1.4
			c2.4,1.4,4.1,3.6,4.8,6.2c0.7,2.6,0.3,5.4-1,7.8c-1.8,3.2-5.2,5.1-8.9,5.1c-1.8,0-3.5-0.5-5.1-1.4
			C185.9,129.2,184.2,122.9,187.1,118.1z"/>
		<polygon class="st1" points="276.3,222 351.8,348.2 371.1,348.2 285.2,205.4 		"/>
		<polygon class="st1" points="347.4,413.3 300.5,335.2 316.5,314.6 306.7,298.7 290.4,318.8 257.4,263.8 247.9,279.5 328.2,413.3 
					"/>
		<polygon class="st1" points="343.8,188.4 325.4,188.4 431.9,367.1 464.1,319.2 444.7,319.2 432.8,336.5 353.3,203.6 383.2,203.6 
			392.8,188.4 345,188.4 		"/>
		<polygon class="st1" points="230.5,306.5 294.9,414.6 312.9,414.6 238.8,291 		"/>
		<polygon class="st1" points="416.1,214.9 390.7,214.9 389.7,214.9 374.4,214.9 431.9,310.9 440.7,299 397.8,227.6 422.9,227.6 		
			"/>
		<polygon class="st1" points="403.4,375.9 422,375.9 339.6,238.7 331,254.7 		"/>
	</g>
</g>
<g>
	<polygon class="st2" points="721.4,286 814.1,286 814.1,386.7 834.5,386.7 834.5,164.9 814.1,164.9 814.1,266.9 721.4,266.9 
		721.4,164.9 701,164.9 701,386.7 721.4,386.7 	"/>
	<path class="st2" d="M924.8,389.7c15.9,0,33.2-3.5,51.4-10.5l0.9-0.3l-5.6-18.7l-1,0.3c-18.4,6.4-34.6,9.7-48.2,9.7
		c-13.4,0-24-5.1-31.6-15.2c-7.5-10-11.9-23.1-13.1-39.2h102.5l1.1-17.8c0-22.5-5.1-40.7-15.1-54.3c-10.1-13.6-25.7-20.5-46.3-20.5
		c-20.6,0-36.5,7.4-47.3,22c-10.7,14.5-16.1,35-16.1,60.8c0,25.8,5.9,46.4,17.5,61.2C885.5,382.2,902.6,389.7,924.8,389.7z
		 M889.6,256.2c7.2-9.2,17.8-13.8,31.5-13.8c12.9,0,22.7,4.6,29.1,13.8c6.4,9.1,9.7,22.8,9.8,41h-82.5
		C878.4,279,882.4,265.3,889.6,256.2z"/>
	<polygon class="st2" points="1017.7,386.7 1059.7,319.4 1102.1,386.7 1127.4,386.7 1073.4,304.8 1124.3,225.3 1099.5,225.3 
		1059.7,290.1 1019.7,225.3 994.1,225.3 1047.1,304.8 992.4,386.7 	"/>
	<path class="st2" d="M1231.1,389.7c15.7,0,33.6-2.9,53.3-8.8l0.9-0.3l-4.9-19l-1,0.3c-19.5,5.5-35.7,8.4-48,8.4
		c-18.3,0-32.3-7.5-41.4-22.3c-9.3-15-13.9-39.4-13.9-72.6c0-33.2,4.4-57.6,13.1-72.5c8.6-14.7,22.8-22.2,42.3-22.2
		c14.1,0,29.3,3.4,45.2,10l1,0.4l6-18.7l-0.9-0.3c-17.7-6.9-35-10.5-51.4-10.5c-26.8,0-46.7,9.2-58.9,27.5
		c-12.1,18.1-18.3,47.4-18.3,87c0,39.6,6.3,68.8,18.8,86.6C1185.7,380.6,1205.2,389.7,1231.1,389.7z"/>
	<path class="st2" d="M1361.7,389.7c43.2,0,65.1-28,65.1-83.2c0-55.2-21.9-83.2-65.1-83.2c-43.2,0-65.1,28-65.1,83.2
		C1296.7,361.7,1318.6,389.7,1361.7,389.7z M1328.8,258.5c7.3-10.5,18.3-15.8,32.9-15.8c14.6,0,25.6,5.3,32.9,15.8
		c7.3,10.6,11.1,26.7,11.1,48c0,21.3-3.7,37.4-11.1,48c-7.3,10.5-18.3,15.8-32.9,15.8c-14.6,0-25.6-5.3-32.9-15.8
		c-7.3-10.6-11.1-26.7-11.1-48C1317.8,285.2,1321.5,269.1,1328.8,258.5z"/>
	<path class="st2" d="M1557.4,367.9h-53.7V263.1c6.6-3.9,16.6-7.7,29.6-11.4c13.4-3.8,24.8-6,33.8-6.7h4.7v-21.8l-4.8,0
		c-9.9,0.9-21.5,3.6-34.5,8.1c-12.1,4.2-21.9,8.4-28.9,12.6l-0.6-18.7h-58v18.8h38.3v123.8H1445v18.8h112.4V367.9z"/>
	<path class="st2" d="M1649.8,389.7c15.9,0,33.2-3.5,51.4-10.5l0.9-0.3l-5.6-18.7l-1,0.3c-18.4,6.4-34.6,9.7-48.2,9.7
		c-13.4,0-24-5.1-31.6-15.2c-7.5-10-11.9-23.1-13.1-39.2h102.5l1.1-17.8c0-22.5-5.1-40.7-15.1-54.3c-10.1-13.6-25.7-20.5-46.3-20.5
		c-20.6,0-36.5,7.4-47.3,22c-10.7,14.5-16.1,35-16.1,60.8c0,25.8,5.9,46.4,17.5,61.2C1610.5,382.2,1627.6,389.7,1649.8,389.7z
		 M1614.6,256.2c7.2-9.2,17.8-13.8,31.5-13.8c12.9,0,22.7,4.6,29.1,13.8c6.4,9.1,9.7,22.8,9.8,41h-82.5
		C1603.4,279,1607.4,265.3,1614.6,256.2z"/>
	<rect x="702" y="422" class="st2" width="1004.2" height="16.5"/>
</g>
</svg>
